<svg width="40" height="50" viewBox="0 0 40 50" fill="none" xmlns="http://www.w3.org/2000/svg">
<path d="M18.8898 0.0522096C17.203 0.308488 15.3013 1.09929 13.7815 2.17566C13.0336 2.71018 11.6411 3.83048 11.1239 4.33572C9.19039 6.19557 7.0102 9.11714 5.53818 11.8264C3.50918 15.5607 1.80641 20.02 0.875454 24.0179C0.222991 26.8443 -0.00775879 28.814 0.000198083 31.5232C0.000198083 33.6466 0.0797668 34.4521 0.437826 36.1362C1.40856 40.6687 4.20938 44.425 8.5061 46.9731C12.0867 49.0966 16.455 50.151 20.9188 49.9826C22.1362 49.9386 22.4545 49.9093 23.839 49.719C25.1598 49.5432 27.0456 49.0526 28.5017 48.5035C33.0371 46.7901 36.5382 43.5683 38.416 39.38C40.0312 35.7847 40.3972 31.7355 39.5777 26.61C39.1639 24.0106 38.1455 20.3128 36.9997 17.2448C35.7266 13.8327 33.7851 10.0837 32.0744 7.72592C30.9206 6.13699 29.2974 4.35036 28.1357 3.38383L27.4912 2.8493L27.3002 3.16416C26.5602 4.37233 25.4463 6.21753 24.6188 7.61608C24.0777 8.53136 23.1706 9.90794 22.5738 10.7134L21.5076 12.1632L22.0487 12.6977C22.3431 12.9906 23.3138 13.9352 24.205 14.7992C25.0882 15.6705 25.876 16.454 25.9555 16.5565C26.0351 16.6664 26.0828 16.8787 26.0908 17.135C26.0908 17.5231 26.059 17.5816 25.4383 18.453C25.0723 18.9582 24.4915 19.7783 24.1334 20.2836C23.7833 20.7888 23.2104 21.5942 22.8683 22.0775C21.9373 23.3735 20.7915 25.0064 19.9401 26.2512C19.5264 26.8516 18.8819 27.7889 18.5158 28.3234L17.8395 29.2972L18.118 30.2638C18.7386 32.3726 19.3354 34.5253 20.2027 37.7105C21.993 44.3298 22.2237 45.2158 22.1601 45.2744C22.1283 45.3036 21.9373 44.9741 21.7304 44.5421C21.5315 44.1101 21.1655 43.334 20.9268 42.8214C20.6801 42.3088 20.3459 41.5839 20.1709 41.2105C18.2374 36.9563 17.4258 35.1404 16.3914 32.8046C15.723 31.2962 15.1103 29.905 15.0307 29.7073L14.8875 29.3558L15.3808 28.6089C15.6593 28.1989 16.3675 27.1518 16.9563 26.2878C17.5451 25.4238 18.7625 23.6225 19.6616 22.2972C20.5608 20.9645 21.6827 19.3097 22.1601 18.6214C22.6375 17.9258 23.0274 17.3254 23.0274 17.2814C23.0274 17.2009 21.7225 15.9341 19.6537 14.0011C18.3408 12.7783 18.1498 12.5293 18.3169 12.1998C18.4044 12.0167 20.6881 9.00731 21.2451 8.34098C21.4281 8.12132 21.8816 7.39641 22.2556 6.73009C22.6295 6.07109 23.4889 4.61396 24.1652 3.49366L25.4065 1.4654L25.0723 1.2677C24.5949 0.989456 23.3854 0.476899 22.8683 0.337777C21.8975 0.066854 19.781 -0.086913 18.8898 0.0522096Z" fill="#484641"/>
</svg>
