<svg width="48" height="48" viewBox="0 0 48 48" fill="none" xmlns="http://www.w3.org/2000/svg">
<path d="M0 24C0 10.7452 10.7452 0 24 0C37.2548 0 48 10.7452 48 24C48 37.2548 37.2548 48 24 48C10.7452 48 0 37.2548 0 24Z" fill="white"/>
<g clip-path="url(#clip0_980_2615)">
<mask id="path-2-inside-1_980_2615" fill="white">
<path d="M16.7738 16.0631C19.1079 11.0577 25.0577 8.89213 30.0631 11.2262C35.0685 13.5602 37.234 19.51 34.9 24.5154L31.519 31.7659C29.185 36.7713 23.2352 38.9369 18.2298 36.6028C13.2244 34.2687 11.0588 28.3189 13.3929 23.3135L16.7738 16.0631Z"/>
</mask>
<path d="M16.7738 16.0631C19.1079 11.0577 25.0577 8.89213 30.0631 11.2262C35.0685 13.5602 37.234 19.51 34.9 24.5154L31.519 31.7659C29.185 36.7713 23.2352 38.9369 18.2298 36.6028C13.2244 34.2687 11.0588 28.3189 13.3929 23.3135L16.7738 16.0631Z" fill="white"/>
<rect width="16" height="12" transform="translate(16.896 20.5332) rotate(25)" fill="#111827"/>
</g>
<path d="M34.9 24.5154L33.0874 23.6702L29.7064 30.9207L31.519 31.7659L33.3316 32.6111L36.7126 25.3607L34.9 24.5154ZM13.3929 23.3135L15.2055 24.1588L18.5864 16.9083L16.7738 16.0631L14.9612 15.2178L11.5803 22.4683L13.3929 23.3135ZM18.2298 36.6028L19.075 34.7902C15.0707 32.9229 13.3382 28.1631 15.2055 24.1588L13.3929 23.3135L11.5803 22.4683C8.77939 28.4748 11.3781 35.6145 17.3845 38.4154L18.2298 36.6028ZM31.519 31.7659L29.7064 30.9207C27.8392 34.925 23.0793 36.6574 19.075 34.7902L18.2298 36.6028L17.3845 38.4154C23.391 41.2163 30.5308 38.6176 33.3316 32.6111L31.519 31.7659ZM30.0631 11.2262L29.2178 13.0388C33.2222 14.906 34.9546 19.6659 33.0874 23.6702L34.9 24.5154L36.7126 25.3607C39.5135 19.3542 36.9148 12.2144 30.9083 9.41357L30.0631 11.2262ZM30.0631 11.2262L30.9083 9.41357C24.9018 6.6127 17.7621 9.21136 14.9612 15.2178L16.7738 16.0631L18.5864 16.9083C20.4537 12.904 25.2135 11.1716 29.2178 13.0388L30.0631 11.2262Z" fill="#111827" mask="url(#path-2-inside-1_980_2615)"/>
<defs>
<clipPath id="clip0_980_2615">
<path d="M16.7738 16.0631C19.1079 11.0577 25.0577 8.89213 30.0631 11.2262C35.0685 13.5602 37.234 19.51 34.9 24.5154L31.519 31.7659C29.185 36.7713 23.2352 38.9369 18.2298 36.6028C13.2244 34.2687 11.0588 28.3189 13.3929 23.3135L16.7738 16.0631Z" fill="white"/>
</clipPath>
</defs>
</svg>
