<svg width="48" height="61" viewBox="0 0 48 61" fill="none" xmlns="http://www.w3.org/2000/svg">
<path d="M24 0.455078C9 0.455078 0 19.2051 0 34.2051C0 49.2051 10.5 60.4551 24 60.4551C37.5 60.4551 48 49.2051 48 34.2051C48 19.2051 39 0.455078 24 0.455078Z" fill="#46443F"/>
<path d="M24 0.455078C9 0.455078 0 19.2051 0 34.2051C0 49.2051 10.5 60.4551 24 60.4551C37.5 60.4551 48 49.2051 48 34.2051C48 19.2051 39 0.455078 24 0.455078Z" fill="url(#paint0_radial_978_2590)"/>
<path d="M23.9999 41.2C25.3253 41.2 26.3999 42.2746 26.3999 43.6C26.3999 44.9254 25.3253 46 23.9999 46C22.6745 46 21.5999 44.9254 21.5999 43.6C21.5999 42.2746 22.6745 41.2 23.9999 41.2ZM23.9999 14C29.3018 14 33.5999 18.2981 33.5999 23.6C33.5999 27.0634 32.3957 28.8651 29.3213 31.477C26.2377 34.0966 25.5999 35.275 25.5999 38H22.3999C22.3999 34.0416 23.6591 32.0883 27.2495 29.0382C29.6765 26.9763 30.3999 25.894 30.3999 23.6C30.3999 20.0654 27.5345 17.2 23.9999 17.2C20.4653 17.2 17.5999 20.0654 17.5999 23.6V25.2H14.3999V23.6C14.3999 18.2981 18.698 14 23.9999 14Z" fill="white"/>
<defs>
<radialGradient id="paint0_radial_978_2590" cx="0" cy="0" r="1" gradientUnits="userSpaceOnUse" gradientTransform="translate(1680 1500.46) scale(4080 5100)">
<stop stop-color="white" stop-opacity="0.7"/>
<stop offset="0.45" stop-color="white" stop-opacity="0"/>
<stop offset="0.85" stop-opacity="0.1"/>
<stop offset="1" stop-opacity="0.3"/>
</radialGradient>
</defs>
</svg>
