<svg width="50" height="64" viewBox="0 0 50 64" fill="none" xmlns="http://www.w3.org/2000/svg">
<circle cx="25" cy="25" r="25" fill="#6F6F6F"/>
<circle cx="25" cy="25" r="20" fill="white"/>
<path d="M26.7321 61C25.9623 62.3333 24.0377 62.3333 23.2679 61L15.8898 48.2206C15.0398 46.7483 16.2978 44.9541 17.9717 45.2514L24.6502 46.4379C24.8816 46.479 25.1184 46.479 25.3498 46.4379L32.0283 45.2514C33.7022 44.9541 34.9602 46.7483 34.1102 48.2206L26.7321 61Z" fill="#6F6F6F"/>
<g clip-path="url(#clip0_936_2787)">
<path d="M25 12C18.75 12 15 19.8125 15 26.0625C15 32.3125 19.375 37 25 37C30.625 37 35 32.3125 35 26.0625C35 19.8125 31.25 12 25 12Z" fill="#6F6F6F"/>
</g>
<defs>
<clipPath id="clip0_936_2787">
<rect width="20" height="25" fill="white" transform="translate(15 12)"/>
</clipPath>
</defs>
</svg>
