<svg preserveAspectRatio="none" width="100%" height="100%" overflow="visible" style="display: block;" viewBox="0 0 27.7587 27.7587" fill="none" xmlns="http://www.w3.org/2000/svg">
<g id="Icon">
<path id="Vector" d="M23.1323 11.5661C23.1323 17.3411 16.7258 23.3555 14.5745 25.213C14.3741 25.3637 14.1301 25.4452 13.8794 25.4452C13.6286 25.4452 13.3846 25.3637 13.1842 25.213C11.0329 23.3555 4.62645 17.3411 4.62645 11.5661C4.62645 9.1121 5.60131 6.75858 7.33657 5.02333C9.07182 3.28807 11.4253 2.31321 13.8794 2.31321C16.3334 2.31321 18.6869 3.28807 20.4221 5.02333C22.1574 6.75858 23.1323 9.1121 23.1323 11.5661Z" stroke="var(--stroke-0, #5B5B5B)" stroke-width="2.89153" stroke-linecap="round" stroke-linejoin="round"/>
<path id="Vector_2" d="M13.8794 15.036C15.7957 15.036 17.3492 13.4825 17.3492 11.5661C17.3492 9.6498 15.7957 8.0963 13.8794 8.0963C11.963 8.0963 10.4095 9.6498 10.4095 11.5661C10.4095 13.4825 11.963 15.036 13.8794 15.036Z" stroke="var(--stroke-0, #5B5B5B)" stroke-width="2.89153" stroke-linecap="round" stroke-linejoin="round"/>
</g>
</svg>
