<svg width="50" height="64" viewBox="0 0 50 64" fill="none" xmlns="http://www.w3.org/2000/svg">
<circle cx="25" cy="25" r="25" fill="#FF7B7B"/>
<circle cx="25" cy="25" r="20" fill="white"/>
<path d="M26.7321 61C25.9623 62.3333 24.0377 62.3333 23.2679 61L15.8898 48.2206C15.0398 46.7483 16.2978 44.9541 17.9717 45.2514L24.6502 46.4379C24.8816 46.479 25.1184 46.479 25.3498 46.4379L32.0283 45.2514C33.7022 44.9541 34.9602 46.7483 34.1102 48.2206L26.7321 61Z" fill="#FF7B7B"/>
<g clip-path="url(#clip0_981_2650)">
<mask id="path-4-inside-1_981_2650" fill="white">
<path d="M17.7738 17.0631C20.1079 12.0577 26.0577 9.89213 31.0631 12.2262C36.0685 14.5602 38.234 20.51 35.9 25.5154L32.519 32.7659C30.185 37.7713 24.2352 39.9369 19.2298 37.6028C14.2244 35.2687 12.0588 29.3189 14.3929 24.3135L17.7738 17.0631Z"/>
</mask>
<path d="M17.7738 17.0631C20.1079 12.0577 26.0577 9.89213 31.0631 12.2262C36.0685 14.5602 38.234 20.51 35.9 25.5154L32.519 32.7659C30.185 37.7713 24.2352 39.9369 19.2298 37.6028C14.2244 35.2687 12.0588 29.3189 14.3929 24.3135L17.7738 17.0631Z" fill="white"/>
<rect width="16" height="12" transform="translate(17.896 21.5332) rotate(25)" fill="#FF7B7B"/>
</g>
<path d="M35.9 25.5154L34.0874 24.6702L30.7064 31.9207L32.519 32.7659L34.3316 33.6111L37.7126 26.3607L35.9 25.5154ZM14.3929 24.3135L16.2055 25.1588L19.5864 17.9083L17.7738 17.0631L15.9612 16.2178L12.5803 23.4683L14.3929 24.3135ZM19.2298 37.6028L20.075 35.7902C16.0707 33.9229 14.3382 29.1631 16.2055 25.1588L14.3929 24.3135L12.5803 23.4683C9.77939 29.4748 12.3781 36.6145 18.3845 39.4154L19.2298 37.6028ZM32.519 32.7659L30.7064 31.9207C28.8392 35.925 24.0793 37.6574 20.075 35.7902L19.2298 37.6028L18.3845 39.4154C24.391 42.2163 31.5308 39.6176 34.3316 33.6111L32.519 32.7659ZM31.0631 12.2262L30.2178 14.0388C34.2222 15.906 35.9546 20.6659 34.0874 24.6702L35.9 25.5154L37.7126 26.3607C40.5135 20.3542 37.9148 13.2144 31.9083 10.4136L31.0631 12.2262ZM31.0631 12.2262L31.9083 10.4136C25.9018 7.6127 18.7621 10.2114 15.9612 16.2178L17.7738 17.0631L19.5864 17.9083C21.4537 13.904 26.2135 12.1716 30.2178 14.0388L31.0631 12.2262Z" fill="#FF7B7B" mask="url(#path-4-inside-1_981_2650)"/>
<defs>
<clipPath id="clip0_981_2650">
<path d="M17.7738 17.0631C20.1079 12.0577 26.0577 9.89213 31.0631 12.2262C36.0685 14.5602 38.234 20.51 35.9 25.5154L32.519 32.7659C30.185 37.7713 24.2352 39.9369 19.2298 37.6028C14.2244 35.2687 12.0588 29.3189 14.3929 24.3135L17.7738 17.0631Z" fill="white"/>
</clipPath>
</defs>
</svg>
