<svg preserveAspectRatio="none" width="100%" height="100%" overflow="visible" style="display: block;" viewBox="0 0 19.9973 19.9973" fill="none" xmlns="http://www.w3.org/2000/svg">
<g id="Icon" clip-path="url(#clip0_2033_2087)">
<path id="Vector" d="M13.3315 17.4976V15.8312C13.3315 14.9472 12.9804 14.0995 12.3553 13.4745C11.7303 12.8494 10.8826 12.4983 9.99863 12.4983H4.99932C4.11538 12.4983 3.26765 12.8494 2.64262 13.4745C2.01758 14.0995 1.66644 14.9472 1.66644 15.8312V17.4976" stroke="var(--stroke-0, #0A0A0A)" stroke-width="2.08305" stroke-linecap="round" stroke-linejoin="round"/>
<path id="Vector_2" d="M13.3315 2.6063C14.0462 2.79158 14.6792 3.20894 15.131 3.79286C15.5828 4.37678 15.828 5.0942 15.828 5.83253C15.828 6.57085 15.5828 7.28828 15.131 7.8722C14.6792 8.45611 14.0462 8.87347 13.3315 9.05875" stroke="var(--stroke-0, #0A0A0A)" stroke-width="2.08305" stroke-linecap="round" stroke-linejoin="round"/>
<path id="Vector_3" d="M18.3308 17.4976V15.8312C18.3303 15.0927 18.0845 14.3753 17.6321 13.7917C17.1796 13.2081 16.5462 12.7912 15.8312 12.6066" stroke="var(--stroke-0, #0A0A0A)" stroke-width="2.08305" stroke-linecap="round" stroke-linejoin="round"/>
<path id="Vector_4" d="M7.49897 9.16541C9.33967 9.16541 10.8319 7.67323 10.8319 5.83253C10.8319 3.99184 9.33967 2.49966 7.49897 2.49966C5.65828 2.49966 4.1661 3.99184 4.1661 5.83253C4.1661 7.67323 5.65828 9.16541 7.49897 9.16541Z" stroke="var(--stroke-0, #0A0A0A)" stroke-width="2.08305" stroke-linecap="round" stroke-linejoin="round"/>
</g>
<defs>
<clipPath id="clip0_2033_2087">
<rect width="19.9973" height="19.9973" fill="white"/>
</clipPath>
</defs>
</svg>
