<svg preserveAspectRatio="none" width="100%" height="100%" overflow="visible" style="display: block;" viewBox="0 0 19.9973 19.9973" fill="none" xmlns="http://www.w3.org/2000/svg">
<g id="Icon" clip-path="url(#clip0_2033_2084)">
<path id="Vector" d="M16.6644 10.8319C16.6644 14.998 13.7481 17.081 10.2819 18.2892C10.1004 18.3507 9.90326 18.3477 9.72367 18.2808C6.24914 17.081 3.33288 14.998 3.33288 10.8319V4.99933C3.33288 4.77835 3.42066 4.56642 3.57692 4.41016C3.73318 4.2539 3.94511 4.16611 4.1661 4.16611C5.83253 4.16611 7.91558 3.16625 9.36538 1.89976C9.54191 1.74894 9.76646 1.66608 9.99863 1.66608C10.2308 1.66608 10.4554 1.74894 10.6319 1.89976C12.09 3.17458 14.1647 4.16611 15.8312 4.16611C16.0521 4.16611 16.2641 4.2539 16.4203 4.41016C16.5766 4.56642 16.6644 4.77835 16.6644 4.99933V10.8319Z" stroke="var(--stroke-0, #0A0A0A)" stroke-width="2.08305" stroke-linecap="round" stroke-linejoin="round"/>
</g>
<defs>
<clipPath id="clip0_2033_2084">
<rect width="19.9973" height="19.9973" fill="white"/>
</clipPath>
</defs>
</svg>
